<svg width="308" height="108" viewBox="0 0 308 108" fill="none" xmlns="http://www.w3.org/2000/svg">
<path d="M74.8359 18.4238V71.5837C74.8359 83.6637 71.5559 92.7037 64.9959 98.7037C58.4359 104.784 48.9959 107.824 36.6759 107.824C30.2759 107.824 24.2759 107.104 18.6759 105.664C13.0759 104.224 8.31597 102.104 4.39597 99.3037L12.676 83.3437C15.316 85.5037 18.636 87.1837 22.636 88.3837C26.716 89.6637 30.716 90.3037 34.636 90.3037C40.636 90.3037 45.0359 88.9837 47.8359 86.3437C50.6359 83.7037 52.0359 79.7837 52.0359 74.5837V72.4237C47.6359 77.5437 41.1959 80.1037 32.7159 80.1037C26.9559 80.1037 21.636 78.8237 16.756 76.2637C11.876 73.6237 7.99597 69.9437 5.11597 65.2237C2.23597 60.4237 0.795898 54.9037 0.795898 48.6637C0.795898 42.5037 2.23597 37.0637 5.11597 32.3437C7.99597 27.5437 11.876 23.8638 16.756 21.3038C21.636 18.6638 26.9559 17.3438 32.7159 17.3438C41.9959 17.3438 48.7959 20.3438 53.1159 26.3438V18.4238H74.8359ZM38.1159 61.9837C42.1959 61.9837 45.5559 60.7437 48.1959 58.2637C50.9159 55.7837 52.2759 52.5837 52.2759 48.6637C52.2759 44.7437 50.9559 41.5837 48.3159 39.1837C45.6759 36.7037 42.2759 35.4637 38.1159 35.4637C33.9559 35.4637 30.5159 36.7037 27.7959 39.1837C25.1559 41.5837 23.8359 44.7437 23.8359 48.6637C23.8359 52.5837 25.196 55.7837 27.916 58.2637C30.636 60.7437 34.0359 61.9837 38.1159 61.9837Z" fill="#455459"/>
<path d="M157.885 18.4238V83.4637H136.165V76.5037C133.765 79.1437 130.885 81.1437 127.525 82.5037C124.165 83.8637 120.605 84.5437 116.845 84.5437C108.445 84.5437 101.725 82.0637 96.6853 77.1037C91.7253 72.1437 89.2453 64.7037 89.2453 54.7837V18.4238H112.045V51.0637C112.045 55.9437 112.965 59.5037 114.805 61.7437C116.645 63.9837 119.325 65.1037 122.845 65.1037C126.445 65.1037 129.365 63.8637 131.605 61.3837C133.925 58.8237 135.085 54.9437 135.085 49.7437V18.4238H157.885Z" fill="#455459"/>
<path d="M229.211 66.4237V83.4637H169.211V70.0237L199.331 35.3437H170.051V18.4238H228.011V31.7437L197.891 66.4237H229.211Z" fill="#455459"/>
<path d="M307.651 18.4238V71.5837C307.651 83.6637 304.411 92.7037 297.931 98.7037C291.531 104.784 282.291 107.824 270.211 107.824C263.891 107.824 257.971 107.104 252.451 105.664C247.011 104.224 242.371 102.104 238.531 99.3037L246.811 83.3437C249.371 85.5037 252.571 87.1837 256.411 88.3837C260.331 89.6637 264.211 90.3037 268.051 90.3037C273.811 90.3037 278.051 88.9837 280.771 86.3437C283.491 83.7037 284.851 79.7837 284.851 74.5837V73.1437C279.971 77.7837 273.891 80.1037 266.611 80.1037C258.211 80.1037 251.491 77.6237 246.451 72.6637C241.491 67.7037 239.011 60.2637 239.011 50.3437V18.4238H261.811V46.6237C261.811 51.5837 262.731 55.1837 264.571 57.4237C266.411 59.6637 269.091 60.7837 272.611 60.7837C276.211 60.7837 279.131 59.5037 281.371 56.9437C283.691 54.3837 284.851 50.5437 284.851 45.4237V18.4238H307.651Z" fill="#455459"/>
</svg>
