<svg width="306" height="108" viewBox="0 0 306 108" fill="none" xmlns="http://www.w3.org/2000/svg">
<path d="M85.347 17.3554C93.347 17.3554 99.707 19.7554 104.427 24.5554C109.227 29.3554 111.627 36.5954 111.627 46.2754V83.4754H88.827V49.9954C88.827 45.4354 87.947 42.0754 86.187 39.9154C84.507 37.7554 82.107 36.6754 78.987 36.6754C75.547 36.6754 72.787 37.8754 70.707 40.2754C68.627 42.6754 67.587 46.3154 67.587 51.1954V83.4754H44.787V49.9954C44.787 41.1154 41.507 36.6754 34.9469 36.6754C31.4269 36.6754 28.627 37.8754 26.547 40.2754C24.467 42.6754 23.427 46.3154 23.427 51.1954V83.4754H0.626953V18.4354H22.347V25.2754C24.747 22.6354 27.587 20.6754 30.867 19.3954C34.227 18.0354 37.867 17.3554 41.787 17.3554C46.347 17.3554 50.427 18.1954 54.027 19.8754C57.627 21.5554 60.547 24.1154 62.787 27.5554C65.347 24.2754 68.587 21.7554 72.507 19.9954C76.427 18.2354 80.707 17.3554 85.347 17.3554Z" fill="#455459"/>
<path d="M194.778 18.4354V83.4754H173.058V76.9954C168.818 82.0354 162.418 84.5554 153.858 84.5554C147.938 84.5554 142.538 83.1954 137.658 80.4754C132.858 77.6754 129.018 73.7154 126.138 68.5954C123.338 63.4754 121.938 57.5554 121.938 50.8354C121.938 44.1154 123.338 38.2354 126.138 33.1954C129.018 28.0754 132.858 24.1554 137.658 21.4354C142.538 18.7154 147.938 17.3554 153.858 17.3554C161.538 17.3554 167.578 19.5954 171.978 24.0754V18.4354H194.778ZM158.658 66.4354C162.658 66.4354 165.938 65.0754 168.498 62.3554C171.058 59.5554 172.338 55.7154 172.338 50.8354C172.338 46.0354 171.058 42.2754 168.498 39.5554C165.938 36.8354 162.658 35.4754 158.658 35.4754C154.658 35.4754 151.378 36.8354 148.818 39.5554C146.258 42.2754 144.978 46.0354 144.978 50.8354C144.978 55.7154 146.258 59.5554 148.818 62.3554C151.378 65.0754 154.658 66.4354 158.658 66.4354Z" fill="#455459"/>
<path d="M254.335 80.8354C252.415 82.0354 250.055 82.9554 247.255 83.5954C244.535 84.2354 241.615 84.5554 238.495 84.5554C230.015 84.5554 223.495 82.4754 218.935 78.3154C214.375 74.1554 212.095 67.9554 212.095 59.7154V35.4754H202.615V18.4354H212.095V0.671875H234.895V18.4354H253.887V35.4754H234.895V59.4754C234.895 61.7954 235.495 63.6354 236.695 64.9954C237.975 66.2754 239.655 66.9154 241.735 66.9154C244.375 66.9154 246.695 66.2354 248.695 64.8754L254.335 80.8354Z" fill="#455459"/>
<path d="M305.607 80.8354C303.687 82.0354 301.327 82.9554 298.527 83.5954C295.807 84.2354 292.887 84.5554 289.767 84.5554C281.287 84.5554 274.767 82.4754 270.207 78.3154C265.647 74.1554 263.367 67.9554 263.367 59.7154V35.4754H253.887V18.4354H263.367V0.671875H286.167V18.4354H301.047V35.4754H286.167V59.4754C286.167 61.7954 286.767 63.6354 287.967 64.9954C289.247 66.2754 290.927 66.9154 293.007 66.9154C295.647 66.9154 297.967 66.2354 299.967 64.8754L305.607 80.8354Z" fill="#455459"/>
</svg>
